solid Default
  facet normal -1.000000e+00 0.000000e+00 0.000000e+00
    outer loop
      vertex -2.825000e+01 4.450000e+01 0.000000e+00
      vertex -2.825000e+01 -4.500000e+00 3.000385e-15
      vertex -2.825000e+01 4.450000e+01 7.350000e+01
    endloop
  endfacet
  facet normal -1.000000e+00 0.000000e+00 0.000000e+00
    outer loop
      vertex -2.825000e+01 4.450000e+01 7.350000e+01
      vertex -2.825000e+01 -4.500000e+00 3.000385e-15
      vertex -2.825000e+01 -4.500000e+00 7.350000e+01
    endloop
  endfacet
  facet normal 0.000000e+00 -6.123234e-17 -1.000000e+00
    outer loop
      vertex -2.825000e+01 -4.500000e+00 3.000385e-15
      vertex -2.825000e+01 4.450000e+01 0.000000e+00
      vertex 2.825000e+01 4.450000e+01 0.000000e+00
    endloop
  endfacet
  facet normal 0.000000e+00 -6.123234e-17 -1.000000e+00
    outer loop
      vertex 2.825000e+01 -4.500000e+00 3.000385e-15
      vertex -2.825000e+01 -4.500000e+00 3.000385e-15
      vertex 2.825000e+01 4.450000e+01 0.000000e+00
    endloop
  endfacet
  facet normal 0.000000e+00 1.000000e+00 -6.123234e-17
    outer loop
      vertex -2.825000e+01 4.450000e+01 0.000000e+00
      vertex -2.825000e+01 4.450000e+01 7.350000e+01
      vertex 2.825000e+01 4.450000e+01 0.000000e+00
    endloop
  endfacet
  facet normal 0.000000e+00 1.000000e+00 -6.123234e-17
    outer loop
      vertex 2.825000e+01 4.450000e+01 0.000000e+00
      vertex -2.825000e+01 4.450000e+01 7.350000e+01
      vertex 2.825000e+01 4.450000e+01 7.350000e+01
    endloop
  endfacet
  facet normal 0.000000e+00 6.123234e-17 1.000000e+00
    outer loop
      vertex 2.675000e+01 4.300000e+01 7.350000e+01
      vertex 2.825000e+01 4.450000e+01 7.350000e+01
      vertex -2.675000e+01 4.300000e+01 7.350000e+01
    endloop
  endfacet
  facet normal 0.000000e+00 6.123234e-17 1.000000e+00
    outer loop
      vertex 2.675000e+01 -3.000000e+00 7.350000e+01
      vertex -2.825000e+01 -4.500000e+00 7.350000e+01
      vertex 2.825000e+01 -4.500000e+00 7.350000e+01
    endloop
  endfacet
  facet normal 0.000000e+00 6.123234e-17 1.000000e+00
    outer loop
      vertex -2.825000e+01 4.450000e+01 7.350000e+01
      vertex -2.825000e+01 -4.500000e+00 7.350000e+01
      vertex -2.675000e+01 -3.000000e+00 7.350000e+01
    endloop
  endfacet
  facet normal 0.000000e+00 6.123234e-17 1.000000e+00
    outer loop
      vertex -2.825000e+01 4.450000e+01 7.350000e+01
      vertex -2.675000e+01 -3.000000e+00 7.350000e+01
      vertex -2.675000e+01 4.300000e+01 7.350000e+01
    endloop
  endfacet
  facet normal 0.000000e+00 6.123234e-17 1.000000e+00
    outer loop
      vertex -2.825000e+01 4.450000e+01 7.350000e+01
      vertex -2.675000e+01 4.300000e+01 7.350000e+01
      vertex 2.825000e+01 4.450000e+01 7.350000e+01
    endloop
  endfacet
  facet normal 0.000000e+00 6.123234e-17 1.000000e+00
    outer loop
      vertex 2.825000e+01 4.450000e+01 7.350000e+01
      vertex 2.675000e+01 4.300000e+01 7.350000e+01
      vertex 2.825000e+01 -4.500000e+00 7.350000e+01
    endloop
  endfacet
  facet normal 0.000000e+00 6.123234e-17 1.000000e+00
    outer loop
      vertex 2.675000e+01 4.300000e+01 7.350000e+01
      vertex 2.675000e+01 -3.000000e+00 7.350000e+01
      vertex 2.825000e+01 -4.500000e+00 7.350000e+01
    endloop
  endfacet
  facet normal 0.000000e+00 6.123234e-17 1.000000e+00
    outer loop
      vertex -2.675000e+01 -3.000000e+00 7.350000e+01
      vertex -2.825000e+01 -4.500000e+00 7.350000e+01
      vertex 2.675000e+01 -3.000000e+00 7.350000e+01
    endloop
  endfacet
  facet normal 0.000000e+00 -1.000000e+00 6.123234e-17
    outer loop
      vertex -2.825000e+01 -4.500000e+00 7.350000e+01
      vertex -2.825000e+01 -4.500000e+00 3.000385e-15
      vertex 2.825000e+01 -4.500000e+00 3.000385e-15
    endloop
  endfacet
  facet normal 0.000000e+00 -1.000000e+00 6.123234e-17
    outer loop
      vertex 2.825000e+01 -4.500000e+00 7.350000e+01
      vertex -2.825000e+01 -4.500000e+00 7.350000e+01
      vertex 2.825000e+01 -4.500000e+00 3.000385e-15
    endloop
  endfacet
  facet normal 1.000000e+00 0.000000e+00 0.000000e+00
    outer loop
      vertex 2.825000e+01 -4.500000e+00 3.000385e-15
      vertex 2.825000e+01 4.450000e+01 0.000000e+00
      vertex 2.825000e+01 4.450000e+01 7.350000e+01
    endloop
  endfacet
  facet normal 1.000000e+00 0.000000e+00 0.000000e+00
    outer loop
      vertex 2.825000e+01 -4.500000e+00 7.350000e+01
      vertex 2.825000e+01 -4.500000e+00 3.000385e-15
      vertex 2.825000e+01 4.450000e+01 7.350000e+01
    endloop
  endfacet
  facet normal 0.000000e+00 1.000000e+00 -6.123234e-17
    outer loop
      vertex 2.675000e+01 -3.000000e+00 7.350000e+01
      vertex 2.675000e+01 -3.000000e+00 1.500000e+00
      vertex -2.675000e+01 -3.000000e+00 7.350000e+01
    endloop
  endfacet
  facet normal 0.000000e+00 1.000000e+00 -6.123234e-17
    outer loop
      vertex -2.675000e+01 -3.000000e+00 7.350000e+01
      vertex 2.675000e+01 -3.000000e+00 1.500000e+00
      vertex -2.675000e+01 -3.000000e+00 1.500000e+00
    endloop
  endfacet
  facet normal 1.000000e+00 0.000000e+00 0.000000e+00
    outer loop
      vertex -2.675000e+01 4.300000e+01 7.350000e+01
      vertex -2.675000e+01 -3.000000e+00 7.350000e+01
      vertex -2.675000e+01 -3.000000e+00 1.500000e+00
    endloop
  endfacet
  facet normal 1.000000e+00 0.000000e+00 0.000000e+00
    outer loop
      vertex -2.675000e+01 4.300000e+01 1.500000e+00
      vertex -2.675000e+01 4.300000e+01 7.350000e+01
      vertex -2.675000e+01 -3.000000e+00 1.500000e+00
    endloop
  endfacet
  facet normal -1.000000e+00 0.000000e+00 0.000000e+00
    outer loop
      vertex 2.675000e+01 -3.000000e+00 7.350000e+01
      vertex 2.675000e+01 4.300000e+01 7.350000e+01
      vertex 2.675000e+01 -3.000000e+00 1.500000e+00
    endloop
  endfacet
  facet normal -1.000000e+00 0.000000e+00 0.000000e+00
    outer loop
      vertex 2.675000e+01 -3.000000e+00 1.500000e+00
      vertex 2.675000e+01 4.300000e+01 7.350000e+01
      vertex 2.675000e+01 4.300000e+01 1.500000e+00
    endloop
  endfacet
  facet normal 0.000000e+00 -1.000000e+00 6.123234e-17
    outer loop
      vertex 2.675000e+01 4.300000e+01 1.500000e+00
      vertex 2.675000e+01 4.300000e+01 7.350000e+01
      vertex -2.675000e+01 4.300000e+01 7.350000e+01
    endloop
  endfacet
  facet normal 0.000000e+00 -1.000000e+00 6.123234e-17
    outer loop
      vertex -2.675000e+01 4.300000e+01 1.500000e+00
      vertex 2.675000e+01 4.300000e+01 1.500000e+00
      vertex -2.675000e+01 4.300000e+01 7.350000e+01
    endloop
  endfacet
  facet normal 0.000000e+00 6.123234e-17 1.000000e+00
    outer loop
      vertex 2.675000e+01 -3.000000e+00 1.500000e+00
      vertex 2.675000e+01 4.300000e+01 1.500000e+00
      vertex -2.675000e+01 -3.000000e+00 1.500000e+00
    endloop
  endfacet
  facet normal 0.000000e+00 6.123234e-17 1.000000e+00
    outer loop
      vertex -2.675000e+01 -3.000000e+00 1.500000e+00
      vertex 2.675000e+01 4.300000e+01 1.500000e+00
      vertex -2.675000e+01 4.300000e+01 1.500000e+00
    endloop
  endfacet
endsolid Default
