solid Default
  facet normal -1.000000e+00 0.000000e+00 0.000000e+00
    outer loop
      vertex -2.850000e+01 2.650000e+01 0.000000e+00
      vertex -2.850000e+01 -2.650000e+01 3.245314e-15
      vertex -2.850000e+01 2.650000e+01 7.350000e+01
    endloop
  endfacet
  facet normal -1.000000e+00 0.000000e+00 0.000000e+00
    outer loop
      vertex -2.850000e+01 2.650000e+01 7.350000e+01
      vertex -2.850000e+01 -2.650000e+01 3.245314e-15
      vertex -2.850000e+01 -2.650000e+01 7.350000e+01
    endloop
  endfacet
  facet normal 0.000000e+00 -6.123234e-17 -1.000000e+00
    outer loop
      vertex -2.850000e+01 -2.650000e+01 3.245314e-15
      vertex -2.850000e+01 2.650000e+01 0.000000e+00
      vertex 2.850000e+01 2.650000e+01 0.000000e+00
    endloop
  endfacet
  facet normal 0.000000e+00 -6.123234e-17 -1.000000e+00
    outer loop
      vertex 2.850000e+01 -2.650000e+01 3.245314e-15
      vertex -2.850000e+01 -2.650000e+01 3.245314e-15
      vertex 2.850000e+01 2.650000e+01 0.000000e+00
    endloop
  endfacet
  facet normal 0.000000e+00 1.000000e+00 -6.123234e-17
    outer loop
      vertex -2.850000e+01 2.650000e+01 0.000000e+00
      vertex -2.850000e+01 2.650000e+01 7.350000e+01
      vertex 2.850000e+01 2.650000e+01 0.000000e+00
    endloop
  endfacet
  facet normal 0.000000e+00 1.000000e+00 -6.123234e-17
    outer loop
      vertex 2.850000e+01 2.650000e+01 0.000000e+00
      vertex -2.850000e+01 2.650000e+01 7.350000e+01
      vertex 2.850000e+01 2.650000e+01 7.350000e+01
    endloop
  endfacet
  facet normal 0.000000e+00 6.123234e-17 1.000000e+00
    outer loop
      vertex 2.700000e+01 2.500000e+01 7.350000e+01
      vertex 2.850000e+01 2.650000e+01 7.350000e+01
      vertex -2.700000e+01 2.500000e+01 7.350000e+01
    endloop
  endfacet
  facet normal 0.000000e+00 6.123234e-17 1.000000e+00
    outer loop
      vertex 2.700000e+01 -2.500000e+01 7.350000e+01
      vertex -2.850000e+01 -2.650000e+01 7.350000e+01
      vertex 2.850000e+01 -2.650000e+01 7.350000e+01
    endloop
  endfacet
  facet normal 0.000000e+00 6.123234e-17 1.000000e+00
    outer loop
      vertex -2.850000e+01 2.650000e+01 7.350000e+01
      vertex -2.850000e+01 -2.650000e+01 7.350000e+01
      vertex -2.700000e+01 -2.500000e+01 7.350000e+01
    endloop
  endfacet
  facet normal 0.000000e+00 6.123234e-17 1.000000e+00
    outer loop
      vertex -2.850000e+01 2.650000e+01 7.350000e+01
      vertex -2.700000e+01 -2.500000e+01 7.350000e+01
      vertex -2.700000e+01 2.500000e+01 7.350000e+01
    endloop
  endfacet
  facet normal 0.000000e+00 6.123234e-17 1.000000e+00
    outer loop
      vertex -2.850000e+01 2.650000e+01 7.350000e+01
      vertex -2.700000e+01 2.500000e+01 7.350000e+01
      vertex 2.850000e+01 2.650000e+01 7.350000e+01
    endloop
  endfacet
  facet normal 0.000000e+00 6.123234e-17 1.000000e+00
    outer loop
      vertex 2.850000e+01 2.650000e+01 7.350000e+01
      vertex 2.700000e+01 2.500000e+01 7.350000e+01
      vertex 2.850000e+01 -2.650000e+01 7.350000e+01
    endloop
  endfacet
  facet normal 0.000000e+00 6.123234e-17 1.000000e+00
    outer loop
      vertex 2.700000e+01 2.500000e+01 7.350000e+01
      vertex 2.700000e+01 -2.500000e+01 7.350000e+01
      vertex 2.850000e+01 -2.650000e+01 7.350000e+01
    endloop
  endfacet
  facet normal 0.000000e+00 6.123234e-17 1.000000e+00
    outer loop
      vertex -2.700000e+01 -2.500000e+01 7.350000e+01
      vertex -2.850000e+01 -2.650000e+01 7.350000e+01
      vertex 2.700000e+01 -2.500000e+01 7.350000e+01
    endloop
  endfacet
  facet normal 0.000000e+00 -1.000000e+00 6.123234e-17
    outer loop
      vertex -2.850000e+01 -2.650000e+01 7.350000e+01
      vertex -2.850000e+01 -2.650000e+01 3.245314e-15
      vertex 2.850000e+01 -2.650000e+01 3.245314e-15
    endloop
  endfacet
  facet normal 0.000000e+00 -1.000000e+00 6.123234e-17
    outer loop
      vertex 2.850000e+01 -2.650000e+01 7.350000e+01
      vertex -2.850000e+01 -2.650000e+01 7.350000e+01
      vertex 2.850000e+01 -2.650000e+01 3.245314e-15
    endloop
  endfacet
  facet normal 1.000000e+00 0.000000e+00 0.000000e+00
    outer loop
      vertex 2.850000e+01 -2.650000e+01 3.245314e-15
      vertex 2.850000e+01 2.650000e+01 0.000000e+00
      vertex 2.850000e+01 2.650000e+01 7.350000e+01
    endloop
  endfacet
  facet normal 1.000000e+00 0.000000e+00 0.000000e+00
    outer loop
      vertex 2.850000e+01 -2.650000e+01 7.350000e+01
      vertex 2.850000e+01 -2.650000e+01 3.245314e-15
      vertex 2.850000e+01 2.650000e+01 7.350000e+01
    endloop
  endfacet
  facet normal 0.000000e+00 1.000000e+00 -6.123234e-17
    outer loop
      vertex 2.700000e+01 -2.500000e+01 7.350000e+01
      vertex 2.700000e+01 -2.500000e+01 1.500000e+00
      vertex -2.700000e+01 -2.500000e+01 7.350000e+01
    endloop
  endfacet
  facet normal 0.000000e+00 1.000000e+00 -6.123234e-17
    outer loop
      vertex -2.700000e+01 -2.500000e+01 7.350000e+01
      vertex 2.700000e+01 -2.500000e+01 1.500000e+00
      vertex -2.700000e+01 -2.500000e+01 1.500000e+00
    endloop
  endfacet
  facet normal 1.000000e+00 0.000000e+00 0.000000e+00
    outer loop
      vertex -2.700000e+01 2.500000e+01 7.350000e+01
      vertex -2.700000e+01 -2.500000e+01 7.350000e+01
      vertex -2.700000e+01 -2.500000e+01 1.500000e+00
    endloop
  endfacet
  facet normal 1.000000e+00 0.000000e+00 0.000000e+00
    outer loop
      vertex -2.700000e+01 2.500000e+01 1.500000e+00
      vertex -2.700000e+01 2.500000e+01 7.350000e+01
      vertex -2.700000e+01 -2.500000e+01 1.500000e+00
    endloop
  endfacet
  facet normal -1.000000e+00 0.000000e+00 0.000000e+00
    outer loop
      vertex 2.700000e+01 -2.500000e+01 7.350000e+01
      vertex 2.700000e+01 2.500000e+01 7.350000e+01
      vertex 2.700000e+01 -2.500000e+01 1.500000e+00
    endloop
  endfacet
  facet normal -1.000000e+00 0.000000e+00 0.000000e+00
    outer loop
      vertex 2.700000e+01 -2.500000e+01 1.500000e+00
      vertex 2.700000e+01 2.500000e+01 7.350000e+01
      vertex 2.700000e+01 2.500000e+01 1.500000e+00
    endloop
  endfacet
  facet normal 0.000000e+00 -1.000000e+00 6.123234e-17
    outer loop
      vertex 2.700000e+01 2.500000e+01 1.500000e+00
      vertex 2.700000e+01 2.500000e+01 7.350000e+01
      vertex -2.700000e+01 2.500000e+01 7.350000e+01
    endloop
  endfacet
  facet normal 0.000000e+00 -1.000000e+00 6.123234e-17
    outer loop
      vertex -2.700000e+01 2.500000e+01 1.500000e+00
      vertex 2.700000e+01 2.500000e+01 1.500000e+00
      vertex -2.700000e+01 2.500000e+01 7.350000e+01
    endloop
  endfacet
  facet normal 0.000000e+00 6.123234e-17 1.000000e+00
    outer loop
      vertex 2.700000e+01 -2.500000e+01 1.500000e+00
      vertex 2.700000e+01 2.500000e+01 1.500000e+00
      vertex -2.700000e+01 -2.500000e+01 1.500000e+00
    endloop
  endfacet
  facet normal 0.000000e+00 6.123234e-17 1.000000e+00
    outer loop
      vertex -2.700000e+01 -2.500000e+01 1.500000e+00
      vertex 2.700000e+01 2.500000e+01 1.500000e+00
      vertex -2.700000e+01 2.500000e+01 1.500000e+00
    endloop
  endfacet
endsolid Default
